<?xml version="1.0" encoding="utf-8"?>
<!-- Generator: Adobe Illustrator 16.0.0, SVG Export Plug-In . SVG Version: 6.00 Build 0)  -->
<!DOCTYPE svg PUBLIC "-//W3C//DTD SVG 1.1//EN" "http://www.w3.org/Graphics/SVG/1.1/DTD/svg11.dtd">
<svg version="1.1" xmlns="http://www.w3.org/2000/svg" xmlns:xlink="http://www.w3.org/1999/xlink" x="0px" y="0px" width="801px"
	 height="801px" viewBox="0 0 801 801" enable-background="new 0 0 801 801" xml:space="preserve">
<g id="Hals">
	<path fill="#F0BEB4" d="M516.426,484.56c0,0-7.869,63.006-7.578,66.341c19.285,12.471,61.918,29.001,74.389,47.272
		c0.869,21.172-7.113,54.31-56.553,91.935c-46.112,35.092-83.814,66.992-162.408,54.522c-58.293-8.99-100.925-60.612-107.885-91.354
		c-6.96-30.742-2.9-83.814,23.202-100.055c0.725-18.054,0.58-16.822,0.29-25.231c-0.29-8.411-8.712-40.256-6.097-47.244
		c10.737,23.753,38.853,56.482,41.664,60.66c2.812,4.178,17.589,23.565,44.519,33.205c26.929,9.641,65.938-1.09,95.011-21.39
		C484.052,532.92,498.339,509.281,516.426,484.56z"/>
	<g opacity="0.2">
		<defs>
			<path id="SVGID_1_" opacity="0.2" d="M516.426,484.56c0,0-7.869,63.006-7.578,66.341c19.285,12.471,61.918,29.001,74.389,47.272
				c0.869,21.172-7.113,54.31-56.553,91.935c-46.112,35.092-83.814,66.992-162.408,54.522
				c-58.293-8.99-100.925-60.612-107.885-91.354c-6.96-30.742-2.9-83.814,23.202-100.055c0.725-18.054,0.58-16.822,0.29-25.231
				c-0.29-8.411-8.712-40.256-6.097-47.244c10.737,23.753,38.853,56.482,41.664,60.66c2.812,4.178,17.589,23.565,44.519,33.205
				c26.929,9.641,65.938-1.09,95.011-21.39C484.052,532.92,498.339,509.281,516.426,484.56z"/>
		</defs>
		<clipPath id="SVGID_2_">
			<use xlink:href="#SVGID_1_"  overflow="visible"/>
		</clipPath>
		<path opacity="0.5" clip-path="url(#SVGID_2_)" fill="#827878" d="M405.215,584.136c22.478-3.363,51.546-13.845,64.625-23.084
			c13.08-9.24,44.953-48.238,46.693-54.232c1.74-5.996,14.211-33.885,14.211-33.885l-75.723,27.794l-165.569-35.962l-32.481,2.9
			c0,0,29.001,69.603,40.602,79.464C309.173,556.991,364.205,590.272,405.215,584.136z"/>
	</g>
	<g>
		<defs>
			<path id="SVGID_3_" d="M516.426,484.56c0,0-7.869,63.006-7.578,66.341c19.285,12.471,61.918,29.001,74.389,47.272
				c0.869,21.172-7.113,54.31-56.553,91.935c-46.112,35.092-83.814,66.992-162.408,54.522
				c-58.293-8.99-100.925-60.612-107.885-91.354c-6.96-30.742-2.9-83.814,23.202-100.055c0.725-18.054,0.58-16.822,0.29-25.231
				c-0.29-8.411-8.712-40.256-6.097-47.244c10.737,23.753,38.853,56.482,41.664,60.66c2.812,4.178,17.589,23.565,44.519,33.205
				c26.929,9.641,65.938-1.09,95.011-21.39C484.052,532.92,498.339,509.281,516.426,484.56z"/>
		</defs>
		<clipPath id="SVGID_4_">
			<use xlink:href="#SVGID_3_"  overflow="visible"/>
		</clipPath>
		<path opacity="0.1" clip-path="url(#SVGID_4_)" fill="#827878" d="M462.59,601.363c-0.312,11.031,17.145,51.192,20.301,56.263
			c9.57,15.37,31.032,35.671,37.412,44.371c6.381,8.701,5.801-6.38,11.602-1.739c5.799,4.641,52.201-9.86,56.262-17.401
			c4.061-7.539,26.682-77.143,18.561-92.224c-8.119-15.081-55.688-24.361-62.934-41.762c-7.25-17.401,2.607-68.929,0-75.937
			c-2.609-7.008-20.01-20.928-36.25-17.448c-16.241,3.48-287.691,8.12-287.691,8.12l23.198,309.734h84.104
			c0,0,22.434-48.432,12.47-77.434c-9.963-29.001-15.95-73.953-14.791-85.554c1.16-11.601,3.48-37.121-1.16-47.562
			c-4.641-10.44-9.655-18.562-3.377-34.223c6.277-15.66,106.042-19.721,115.902-20.301
			C446.06,507.689,463.132,582.22,462.59,601.363z"/>
	</g>
</g>
<g id="Ansiktsform">
	<path fill="#F0BEB4" d="M556.844,221.929c-2.318-22.041-8.119-73.856-16.24-87.777c-8.119-13.921-62.644-18.174-72.696-8.12
		c-10.053,10.053-39.828,8.894-53.749,3.48c-13.921-5.413-52.59-31.708-69.604-29.001c-17.014,2.707-36.735,7.734-46.789,30.935
		c-10.054,23.201-13.148,86.231-15.854,95.898c-2.707,9.667-4.254,29.388-13.921,29.774c-9.667,0.387-13.534,1.933-19.334,0
		c-5.8-1.934-12.864-1.161-20.75,11.111c0,0-10.133,12.547-7.669,27.228c3.968,23.64,14.401,50.985,18.751,66.453
		c1.078,3.833,1.547,13.147,10.828,18.948c0,9.667,3.094,62.645,24.748,101.313c15.467,31.32,36.735,51.814,43.695,63.415
		c6.96,11.602,32.482,32.868,67.67,32.868s73.857-23.587,94.738-47.175s52.976-61.87,63.415-115.619
		c9.281-2.319,17.789-3.48,20.496-24.748c9.666-16.241,21.266-34.029,25.135-52.589c2.318-20.107,0.771-46.015-14.695-46.789
		c-15.467-0.773-15.467-3.867-15.467-3.867L556.844,221.929z"/>
	<g>
		<defs>
			<path id="SVGID_5_" d="M556.844,221.929c-2.318-22.041-8.119-73.856-16.24-87.777c-8.119-13.921-62.644-18.174-72.696-8.12
				c-10.053,10.053-39.828,8.894-53.749,3.48c-13.921-5.413-52.59-31.708-69.604-29.001c-17.014,2.707-36.735,7.734-46.789,30.935
				c-10.054,23.201-13.148,86.231-15.854,95.898c-2.707,9.667-4.254,29.388-13.921,29.774c-9.667,0.387-13.534,1.933-19.334,0
				c-5.8-1.934-12.864-1.161-20.75,11.111c0,0-10.133,12.547-7.669,27.228c3.968,23.64,14.401,50.985,18.751,66.453
				c1.078,3.833,1.547,13.147,10.828,18.948c0,9.667,3.094,62.645,24.748,101.313c15.467,31.32,36.735,51.814,43.695,63.415
				c6.96,11.602,32.482,32.868,67.67,32.868s73.857-23.587,94.738-47.175s52.976-61.87,63.415-115.619
				c9.281-2.319,17.789-3.48,20.496-24.748c9.666-16.241,21.266-34.029,25.135-52.589c2.318-20.107,0.771-46.015-14.695-46.789
				c-15.467-0.773-15.467-3.867-15.467-3.867L556.844,221.929z"/>
		</defs>
		<clipPath id="SVGID_6_">
			<use xlink:href="#SVGID_5_"  overflow="visible"/>
		</clipPath>
		<path opacity="0.1" clip-path="url(#SVGID_6_)" fill="#A39290" d="M558.293,257.085c-4.543,30.189-8.021,65.521-11.889,78.335
			s-18.754,45.822-15.66,64.383s-23.201,57.037-25.521,67.863c-2.32,10.827-27.744,34.604-38.717,46.978
			c-10.973,12.374-52.497,28.615-75.431,26.295c-22.933-2.32-80.354-32.777-91.182-49.79c-10.827-17.014-22.814-58.67-26.681-75.685
			c-3.866-17.015-5.224-74.48-8.525-91.377c-3.303-16.897,4.999-51.391,6.994-60.788c1.995-9.396-37.331-27.068-47.384-34.028
			c-10.054-6.96-11.601,159.928-11.601,159.928l40.684,159.473l236.329,71.924l156.074-105.952l-13.92-226.597L558.293,257.085z"/>
	</g>
</g>
<g id="Mun">
	<path fill="#CE6E79" d="M384.77,491.062c12.761,0.634,30.281-0.193,33.567-2.32c2.514-2.319,13.097-9.159,5.488-7.995
		c-8.464,1.296-34.706,0.95-41.086-0.79s-37.218-9.969-32.578-5.909C354.802,478.107,370.472,490.353,384.77,491.062z"/>
	<g opacity="0.2">
		<defs>
			<path id="SVGID_7_" opacity="0.2" d="M384.77,491.062c12.761,0.634,30.281-0.193,33.567-2.32
				c2.514-2.319,13.097-9.159,5.488-7.995c-8.464,1.296-34.706,0.95-41.086-0.79s-37.218-9.969-32.578-5.909
				C354.802,478.107,370.472,490.353,384.77,491.062z"/>
		</defs>
		<clipPath id="SVGID_8_">
			<use xlink:href="#SVGID_7_"  overflow="visible"/>
		</clipPath>
		<path clip-path="url(#SVGID_8_)" fill="#8A735C" d="M390.957,484.56c8.14,0.573,14.266,0.071,19.313,0.869
			c5.048,0.799,18.679,1.522,23.608,0c4.931-1.521-11.311-15.151-11.311-15.151l-60.613-5.801h-22.331
			c0,0,4.641,12.471,12.181,13.921s23.491,2.087,26.971,3.219C382.257,482.748,386.576,484.25,390.957,484.56z"/>
	</g>
	<path fill="#CE6E79" d="M469.84,440.115"/>
</g>
<g id="Näsa_1_">
	<path fill="#805D50" d="M410.679,435.572c3.468-1.803,9.279-0.773,6.959-3.287c-2.32-2.514-3.118-4.254-7.359-1.74
		c-4.242,2.514-5.001,3.712-7.909,6.786C406.224,436.503,405.846,438.086,410.679,435.572z"/>
	<path fill="#805D50" d="M374.136,429.319c-1.13-1.773-2.065-4.188-3.45-3.801c-1.383,0.387-2.289,1.995,0,3.801
		C372.977,431.126,376.322,432.748,374.136,429.319z"/>
	<path opacity="0.15" fill="#8A735C" d="M391.456,365.776c3.099-15.164,10.447-34.626,7.621-45.771
		c-2.828-11.145-19.774-18.921-25.22-20.545c-5.446-1.624,17.058,33.711,15.845,41.251c-1.215,7.541-4.98,26.611-6.721,40.532
		c-1.74,13.92-5.896,18.561-7.767,24.361s1.158,9.667,4.06,3.867C382.178,403.671,388.745,379.047,391.456,365.776z"/>
	<path opacity="0.2" fill="#8A735C" d="M418.171,339.383c2.647-9.048,6.428-22.424,11.938-25.954
		c5.51-3.53,29.136-6.427,26.23-2.716c-1.619,2.068-17.864,6.876-25.071,13.376c-7.206,6.5-11.275,40.622-13.097,46.133
		C416.348,375.732,416.964,343.507,418.171,339.383z"/>
	<path opacity="0.3" fill="#8A735C" d="M421.915,421.494c1.797-1.957,2.414-6.557,2.533-7.49c0.153-1.2-1.95-3.223-3.666-4.328
		c-3.056-1.966-0.859,2.972-0.105,4.631c0.754,1.66,0.976,3.647-0.941,6.318c-1.917,2.67-2.085,3.6-0.181,2.477"/>
</g>
<g id="Skägg">
	<path fill="#B08874" d="M436.199,455.486c8.687,9.12,35.576,4.254,38.669,9.28c3.093,5.027-4.255,18.948-7.347,19.722
		c-3.093,0.773-19.335-5.028-23.202-5.415c-3.866-0.386-42.148,0.389-45.628,0.389s-37.895-5.414-41.375-6.961
		c-3.48-1.548-19.334-4.57-23.201-2.479c-3.867,2.091-17.401,6.731-20.881,2.091c-3.48-4.64-13.147-22.814,0-25.907
		s25.522,0.773,35.575-2.32c10.054-3.093,18.561-11.213,26.294-11.601c6.574,7.734,6.992,6.573,13.937,6.961
		c6.946,0.387,10.188-0.368,13.331-1.915C407.447,438.877,428.465,447.366,436.199,455.486z"/>
	<path fill="none" stroke="#000000" stroke-miterlimit="10" d="M415.362,522.77"/>
	<path fill="#B08874" d="M451.86,538.044c-3.585-4.896-19.282-9.662-25.328-9.861c-3.564-0.116-31.211,0.967-32.372-1.354
		c-1.16-2.319-1.076-9.085,3.951-11.792c5.026-2.708,15.312-3.873,17.25-4.642c2.847-1.129,8.454-10.634,2.847-11.602
		s-21.451-1.159-25.898-1.545c-4.447-0.387-28.035-4.698-29.775-2.36c-1.74,2.337,0.58,12.026,5.027,15.12
		c4.447,3.094,7.077,6.146,6.766,9.667c-0.58,6.574-14.693,2.708-19.72,2.127c-5.027-0.58-30.935,10.635-32.095,13.921
		c-1.161,3.286-3.411,10.094-1.435,13.104c1.977,3.011,30.776,31.147,60.574,29.516c29.798-1.631,56.428-12.135,73.325-25.121
		C455.34,544.424,453.37,540.105,451.86,538.044z"/>
</g>
<g id="Skuggor_öron">
	<path opacity="0.6" fill="#C49C8C" d="M574.391,303.059c2.719-1.938,6.525-2.584,8.555,4.811
		c2.031,7.396,5.387,19.479,4.227,25.715s0.414,10.634-3.26,15.467c-0.809,1.064-3.23,6.323-3.955,7.193s-1.941-6.323,1.104-10.818
		s3.287-8.168,3.383-10.682c0.168-4.375-2.658-23.922-4.688-25.761c-2.029-1.839-6.332-1.453-7.348-1.307
		C571.395,307.821,570.766,305.644,574.391,303.059z"/>
	<path opacity="0.4" fill="#C49C8C" d="M570.766,361.136c2.08-6.325,0.855-12.374,1.412-17.999
		c0.336-3.403-3.691-15.079-6.977-13.146c-3.287,1.933-1.486,18.556-1.686,22.831c-0.291,6.176-5.125,15.661-5.51,17.788
		c-0.387,2.127,4.67,3.287,7.361,0S569.633,364.581,570.766,361.136z"/>
	<path opacity="0.6" fill="#C49C8C" d="M240.923,263.111c-2.875,0.628-13.71,15.332-16.144,20.977
		c-2.417,5.607,0.6,16.148,1.644,21.848c1.547,8.447,3.876,19.817,8.709,25.812c0,0,2.311-7.631,0.378-11.743
		s-5.375-23.706-5.993-26.539c-1.161-5.317,3.007-13.509,6.477-18.755C240.149,268.427,259.225,259.115,240.923,263.111z"/>
	<path opacity="0.4" fill="#C49C8C" d="M251.897,311.344c0.408,5.136,0.699,13.223,2.332,15.688
		c1.633,2.463,6.298,16.885,1.633,11.878c-4.665-5.008-11.662-9.816-11.662-23.036c0-13.218,0.642-17.777,4.635-15.297
		C252.83,303.057,251.664,308.415,251.897,311.344z"/>
</g>
<g id="Skuggor_ögon">
	<path opacity="0.1" fill="#846D63" d="M446.06,313.43c5.22-3.941,13.163-11.981,23.082-13.357
		c16.306-2.261,66.911,2.191,68.071,5.876c1.16,3.685,1.967,16.393-4.703,20.184s-13.438,1.76-19.816,2.63
		c-17.812,2.429-37.606-2.637-46.017-2.632c-5.027,0.002-13.261,6.498-19.418,2.632C441.1,324.898,436.798,320.422,446.06,313.43z"
		/>
	<path fill="#B08874" d="M519.723,243.486"/>
	<path opacity="0.1" fill="#846D63" d="M351.516,283.992c-4.261-0.851-36.735-3.673-39.442-1.546
		c-2.707,2.126-10.054,9.257-10.633,14.972c-0.58,5.716-0.144,15.892,9.28,17.51s23.047-2.838,39.249,1.483
		c16.2,4.321,31.708,4.227,33.255,3.595c1.546-0.631,0.967-1.405,0-5.465s-13.341-19.721-15.661-22.621
		C365.243,289.019,355.194,284.727,351.516,283.992z"/>
	<path fill="#846D63" d="M501.147,359.782"/>
	<path opacity="0.05" fill="#67554E" d="M472.009,314.699c16.29-1.069,35.428,5.801,45.096-0.386s20.115-19.595,23.594-23.848
		c3.48-4.254,2.725,29.703-9.064,37.653c-11.787,7.95-58.755,10.169-71.109,7.728c-9.424-1.862-28.49-20.373-24.623-25.98
		s-2.319-5.607,12.761,0C463.744,315.473,458.385,315.593,472.009,314.699z"/>
	<path opacity="0.05" fill="#67554E" d="M381.128,349.14c-8.007-1.249-11.922-3.279-18.448-2.409s-22.621,4.809-30.452,1.099
		c-7.83-3.709-33.062-5.74-37.412-4.144c-4.35,1.595-14.646,5.22-13.05,9.715c1.595,4.495,11.166,12.761,33.931,19.576
		c4.387,1.313,42.632,3.48,46.837,0s18.706-20.156,19.286-21.171C382.401,350.792,381.128,349.14,381.128,349.14z"/>
</g>
<g id="Höger_Öga">
	<g>
		<path fill="#D1D3D4" d="M492.85,321.693c-1.184-0.854-2.538-1.578-3.988-2.206c0.541,1.34,0.846,2.8,0.846,4.333
			c0,6.407-5.194,11.601-11.601,11.601c-6.406,0-11.601-5.194-11.601-11.601c0-2.786,0.984-5.34,2.62-7.34
			c-2.993,0.156-5.656,0.56-7.599,1.153c-5.391,1.646-8.701,3.674-10.247,5.22c-1.546,1.546,0,6.574,4.253,7.927
			c2.901,0.387,8.701,4.834,21.074,8.603c14.887,4.93,23.781-5.316,24.361-7.25S501.162,327.688,492.85,321.693z"/>
	</g>
	<path fill="#1C75BC" d="M478.106,335.421c6.407,0,11.601-5.194,11.601-11.601c0-1.533-0.305-2.993-0.846-4.333
		c-5.885-2.552-13.533-3.332-19.736-3.007c-1.636,2-2.62,4.555-2.62,7.34C466.505,330.227,471.7,335.421,478.106,335.421z"/>
	<circle fill="#262626" cx="478.712" cy="324.088" r="4.083"/>
	<g opacity="0.3">
		<path fill="#050606" d="M453.317,321.25c0,0,0.17-0.111,0.489-0.318c0.315-0.214,0.786-0.513,1.418-0.849
			c1.258-0.666,3.116-1.55,5.48-2.215c2.353-0.691,5.171-1.25,8.206-1.605c1.525-0.167,3.063-0.352,4.676-0.51
			c1.61-0.141,3.27-0.181,4.919-0.036c3.302,0.306,6.501,1.322,9.269,2.671c1.394,0.661,2.674,1.429,3.84,2.216
			c1.172,0.779,2.235,1.578,3.186,2.349c1.908,1.538,3.343,2.989,4.338,4.003c0.503,0.503,0.863,0.932,1.125,1.208
			c0.256,0.282,0.393,0.432,0.393,0.432s-0.601-0.545-1.652-1.5c-0.531-0.47-1.174-1.042-1.94-1.664
			c-0.761-0.626-1.638-1.31-2.606-2.034c-1.938-1.449-4.336-2.954-7.054-4.227c-2.713-1.278-5.813-2.204-8.986-2.463
			c-1.583-0.162-3.181-0.147-4.754-0.031c-1.568,0.132-3.154,0.3-4.656,0.443c-3.011,0.309-5.813,0.684-8.156,1.285
			c-2.35,0.565-4.253,1.26-5.538,1.849c-0.641,0.293-1.146,0.535-1.478,0.723C453.497,321.155,453.317,321.25,453.317,321.25z"/>
	</g>
	<g opacity="0.3">
		<path fill="#050606" d="M453.659,329.836c0,0,0.625,0.271,1.719,0.745c1.092,0.475,2.652,1.153,4.523,1.967
			c0.926,0.425,1.958,0.822,3.033,1.276c1.083,0.432,2.206,0.944,3.396,1.384c1.188,0.445,2.415,0.905,3.662,1.372
			c1.243,0.473,2.548,0.877,3.834,1.275c1.289,0.407,2.589,0.771,3.879,1.078c1.291,0.3,2.566,0.573,3.814,0.745
			c1.247,0.182,2.458,0.285,3.611,0.335c0.577-0.002,1.137-0.004,1.68-0.006c0.541-0.043,1.063-0.084,1.565-0.124
			c0.994-0.148,1.91-0.285,2.702-0.505c0.811-0.159,1.462-0.471,2.03-0.644c1.084-0.471,1.704-0.764,1.704-0.764
			s-0.146,0.087-0.42,0.25c-0.278,0.155-0.669,0.425-1.205,0.691c-0.554,0.221-1.195,0.593-2.003,0.823
			c-0.787,0.294-1.71,0.514-2.729,0.706c-0.514,0.067-1.048,0.137-1.602,0.208c-0.558,0.031-1.134,0.062-1.726,0.094
			c-1.185,0.008-2.439-0.026-3.722-0.192c-1.284-0.15-2.602-0.371-3.919-0.677c-1.319-0.302-2.646-0.66-3.955-1.063
			c-1.309-0.417-2.604-0.831-3.86-1.32c-1.251-0.5-2.482-0.992-3.674-1.469c-1.197-0.464-2.29-1.046-3.357-1.533
			c-1.056-0.51-2.069-0.959-2.977-1.432C456.013,331.207,453.659,329.836,453.659,329.836z"/>
	</g>
	<circle fill="#FFFFFF" cx="475.92" cy="322.024" r="1.413"/>
</g>
<g id="Vänster_öga">
	<path fill="#D1D3D4" d="M369.496,316.41c-0.435-2.74-4.205-2.74-8.265-5.786c-1.719-1.289-4.428-2.94-7.429-4.462
		c0.299,1.04,0.468,2.134,0.468,3.27c0,6.527-5.291,11.817-11.818,11.817c-6.527,0-11.818-5.291-11.818-11.817
		c0-2.473,0.762-4.766,2.06-6.663c-6.048,1.194-12.597,3.351-14.531,5.1c-0.87,2.755-0.145,6.38,1.16,7.831
		c1.305,1.45,8.12,8.22,18.416,8.388c5.366,0.087,23.491-2.588,25.666-2.588C365.581,321.5,369.931,319.15,369.496,316.41z"/>
	<path fill="#1C75BC" d="M342.452,321.25c6.527,0,11.818-5.291,11.818-11.817c0-1.136-0.169-2.23-0.468-3.27
		c-4.088-2.073-8.719-3.904-12.147-4.238c-2.17-0.212-5.483,0.158-8.96,0.845c-1.298,1.897-2.06,4.19-2.06,6.663
		C330.634,315.959,335.925,321.25,342.452,321.25z"/>
	<circle fill="#1B1B1C" cx="341.909" cy="309.719" r="3.734"/>
	<g opacity="0.3">
		<path fill="#050606" d="M366.292,313.43c0,0-0.675-0.34-1.831-0.983c-1.154-0.648-2.808-1.563-4.759-2.707
			c-1.956-1.136-4.266-2.408-6.767-3.691c-1.26-0.622-2.566-1.257-3.934-1.793c-1.361-0.554-2.772-1.032-4.202-1.413
			c-0.713-0.205-1.438-0.342-2.162-0.47c-0.657-0.101-1.472-0.112-2.192-0.172c-1.458-0.04-2.907-0.057-4.3,0.061
			c-1.396,0.071-2.737,0.256-3.996,0.494c-1.262,0.232-2.43,0.573-3.502,0.906c-2.139,0.693-3.885,1.419-5.115,1.901
			c-1.234,0.478-1.954,0.711-1.954,0.711s0.684-0.319,1.882-0.877c0.598-0.283,1.323-0.626,2.155-1.021
			c0.838-0.385,1.787-0.822,2.858-1.217c1.074-0.383,2.251-0.779,3.532-1.071c1.278-0.295,2.645-0.548,4.073-0.671
			c1.427-0.139,2.907-0.144,4.419-0.122c0.76,0.054,1.451,0.042,2.28,0.15c0.76,0.121,1.521,0.253,2.264,0.453
			c1.5,0.352,2.941,0.888,4.323,1.475c1.391,0.572,2.708,1.238,3.975,1.889c1.261,0.662,2.459,1.337,3.566,2.023
			c1.11,0.68,2.149,1.338,3.102,1.952c1.914,1.216,3.454,2.311,4.56,3.033C365.665,313.008,366.292,313.43,366.292,313.43z"/>
	</g>
	<g opacity="0.3">
		<path fill="#050606" d="M361.393,321.668c0,0-0.639,0.122-1.757,0.336c-1.119,0.199-2.71,0.543-4.635,0.864
			c-1.925,0.321-4.172,0.71-6.601,0.996c-1.214,0.143-2.47,0.29-3.753,0.379c-1.281,0.104-2.588,0.167-3.896,0.211
			c-0.655,0.002-1.311,0.005-1.963,0.007c-0.653-0.022-1.304-0.044-1.95-0.065c-0.646-0.057-1.287-0.113-1.919-0.168
			c-0.63-0.097-1.253-0.192-1.866-0.286c-0.611-0.139-1.195-0.275-1.793-0.432c-0.557-0.185-1.101-0.366-1.631-0.542
			c-1.063-0.324-2.058-0.749-2.973-1.111c-0.897-0.414-1.721-0.796-2.375-1.28c-0.345-0.209-0.636-0.451-0.891-0.693
			c-0.272-0.22-0.48-0.464-0.668-0.682c-0.384-0.427-0.623-0.807-0.837-1.023c-0.2-0.23-0.307-0.353-0.307-0.353
			s0.121,0.109,0.346,0.315c0.238,0.196,0.532,0.538,0.939,0.928c0.202,0.196,0.423,0.415,0.704,0.604
			c0.263,0.209,0.561,0.416,0.913,0.589c0.339,0.191,0.696,0.395,1.112,0.546c0.41,0.16,0.816,0.375,1.274,0.527
			c0.916,0.306,1.884,0.664,2.977,0.935c0.539,0.148,1.092,0.299,1.658,0.455c0.558,0.114,1.128,0.231,1.708,0.35
			c0.594,0.074,1.198,0.15,1.81,0.227c0.617,0.042,1.242,0.086,1.871,0.129c0.633,0.016,1.271,0.031,1.911,0.047
			c0.642-0.008,1.286-0.016,1.93-0.024c1.289-0.031,2.58-0.082,3.85-0.173c1.27-0.085,2.521-0.175,3.729-0.291
			c2.418-0.221,4.679-0.443,6.614-0.677c1.935-0.23,3.554-0.381,4.688-0.501C360.743,321.701,361.393,321.668,361.393,321.668z"/>
	</g>
	<circle fill="#FFFFFF" cx="339.709" cy="307.35" r="1.413"/>
</g>
<g id="Glasögon">
	<path fill="none" stroke="#000000" stroke-miterlimit="10" d="M482.795,325.753"/>
	<g>
		<path fill="#161C23" d="M264.678,299.698c0.001,0,0.002,0.002,0.003,0.003C264.68,299.7,264.679,299.7,264.678,299.698z"/>
		<path fill="#161C23" d="M264.668,299.688c-0.006-0.006-0.011-0.01-0.011-0.011C264.662,299.682,264.665,299.685,264.668,299.688z"
			/>
		<path fill="#161C23" d="M264.681,299.701C264.687,299.706,264.688,299.708,264.681,299.701L264.681,299.701z"/>
		<path fill="#161C23" d="M264.678,299.698c-0.002-0.002-0.006-0.005-0.009-0.01C264.671,299.692,264.675,299.695,264.678,299.698z"
			/>
		<polygon fill="#161C23" points="264.657,299.677 264.656,299.677 264.656,299.677 		"/>
		<path fill="#161C23" d="M566.416,284.669c0,0-15.516,21.46-18.707,23.781c-4.785,0-39.723-3.251-59.307-4.06
			c-17.546-0.726-62.354,6.38-77.144,5.51s-36.399-11.269-62.353-15.371c-23.491-3.713-68.153-5.8-74.824-5.8
			c-2.32-3.48-0.942-3.19-3.118-4.277s-3.987-3.625-5.147-8.266s-11.238-25.376-11.238-25.376l-5.366,1.305
			c0,0,10.803,41.109,13.414,45.532c1.509,1.509,1.929,1.929,2.03,2.03c0,0,6.38,3.274,6.815,9.866s1.16,36.898,7.54,47.049
			c6.38,10.15,13.486,18.561,46.982,20.736c25.376,2.03,47.417,5.511,58.728-25.956c8.7-17.401,11.02-29.727,22.476-28.856
			c10.15,0.87,8.99,0.58,18.415,34.511c7.251,14.646,9.136,22.912,26.537,28.132c17.401,3.915,58.438,8.41,71.924-4.641
			c11.311-12.47,16.24-36.541,20.734-50.607c2.465-7.541,4.061-7.396,7.25-8.266c1.596-1.885,19.287-32.046,19.287-32.046
			L566.416,284.669z M366.403,367.129c-9.087,4.834-43.502,9.86-70.183-2.707c-5.679-3.88-15.082-2.127-19.335-38.668
			c0.58-16.627-8.565-39.642,61.87-27.84c11.354,1.902,46.373,3.948,50.27,19.914C389.41,329.621,382.813,355.77,366.403,367.129z
			 M517.598,378.536c-9.09,2.9-20.688,6.768-38.283,5.415c-17.595-1.354-36.928-2.32-45.822-25.521
			c-5.994-14.694-14.693-35.769,0-44.275c14.854-3.292,36.325-5.13,55.683-4.641c8.524,0.215,45.627-1.15,48.915,15.468
			C537.51,335.808,533.838,370.028,517.598,378.536z"/>
	</g>
</g>
<g id="Ögonbryn">
	<path fill="#B08874" d="M486.082,299.405c4.002,0.707,23.393-0.719,27.841,0.055c4.448,0.773,21.653,5.198,21.267,2.985
		c-0.385-2.213-7.152-20.386-12.373-21.74c-5.219-1.354-11.6-2.513-21.074,0s-19.915,4.833-29.001,3.287
		c-9.087-1.546-24.554,8.508-27.648,12.375c-3.094,3.866,9.861,6.186,14.887,4.833C465.006,299.846,479.507,298.246,486.082,299.405
		z"/>
	<path fill="#B08874" d="M342.235,287.859c-3.82-1.495-19.721-2.61-25.811-2.03s-18.851,3.564-17.691-2.713
		c1.16-6.277,23.289-16.919,31.902-15.558c23.636,3.738,36.112,3.832,40.231,7.915c7.538,7.473,9.842,10.94,8.104,13.84
		C377.232,292.213,348.905,290.469,342.235,287.859z"/>
</g>
<g id="Hår">
	<path fill="#8A735C" d="M489.562,53.722c-8.202-5.332-23.599-10.249-33.255-14.695c-3.092-2.513-15.468,2.32-34.415-0.387
		c-20.108,1.547-28.227,7.735-35.575,7.541c-7.347-0.194-20.108,8.314-30.162,12.18c-10.053,3.867-29,10.44-30.934,15.467
		c-1.934,5.027-7.348,5.027-14.695,9.667s-25.521,22.428-29.774,30.162c-4.253,7.733-11.987,21.654-13.921,24.748
		c-1.933,3.094-9.281,37.508-10.827,44.468c-1.546,6.96-12.344,50.197-12.374,59.55c-0.086,27.455,12.954,12.567,16.821,17.594
		c3.867,5.026,7.154-0.58,9.087,0.58c1.933,1.16,20.88-44.468,21.267-52.588c0.387-8.121,4.64-33.642,3.867-40.989
		c-0.773-7.347,5.027-32.482,11.214-40.989c6.187-8.507,15.898-11.691,24.361-12.76c8.463-1.07,14.498-9.245,20.881-7.971
		c6.383,1.274,14.307,6.81,17.788,7.971c3.48,1.16,14.308,9.667,16.628,9.28c2.32-0.387,6.573,9.667,11.214,16.627
		c6.186,1.161,13.509-1.546,13.521-4.253s4.266-1.547,5.425,3.866c1.16,5.414,5.413,15.854,8.12,9.281s7.348-9.281,8.508-6.96
		c1.16,2.32,0.772,13.534,5.413,10.44c4.641-3.093,8.508-10.439,8.894-13.147c0.386-2.707,3.094,2.728,0,11.225
		c-3.094,8.497,17.402-10.838,18.174-12.771c0.773-1.933,21.198-11.598,20.108-6.574c-1.091,5.025,13.534,3.48,23.2,1.547
		c9.667-1.934,25.612,7.788,28.272,11.933c2.662,4.146,14.648,39.883,15.424,56.124c0.773,16.241,1.691,91.735,3.48,92.805
		c6.641,3.97,17.795,10.019,20.107,4.64c2.311-5.378,5.799-18.174,7.734-25.521c1.932-7.347,0-41.762,3.094-46.016
		c3.092-4.253-2.322-52.318-3.869-56.9c-1.545-4.583-6.572-30.877-14.693-44.024S541.377,91.23,538.09,88.136
		c-3.285-3.094-23.006-15.468-24.553-18.174C511.988,67.255,497.295,58.749,489.562,53.722z"/>
</g>
</svg>
